<?xml version="1.0" encoding="UTF-8"?>
<svg width="17px" height="24px" viewBox="0 0 17 24" version="1.1" xmlns="http://www.w3.org/2000/svg" xmlns:xlink="http://www.w3.org/1999/xlink">
    <!-- Generator: Sketch 43.1 (39012) - http://www.bohemiancoding.com/sketch -->
    <title>Shape</title>
    <desc>Created with Sketch.</desc>
    <defs></defs>
    <g id="Page-1" stroke="none" stroke-width="1" fill="none" fill-rule="evenodd">
        <path d="M6.8,24 C6.6,24 6.3,24 6.1,23.9 C5.7,23.7 5.3,23.4 5.1,22.9 C4.9,22.5 4.9,22 5.1,21.5 L13.5,1.3 C13.8,0.6 14.4,0.2 15.1,0.2 C15.3,0.2 15.6,0.2 15.8,0.3 C16.2,0.5 16.6,0.8 16.8,1.3 C17,1.7 17,2.2 16.8,2.7 L8.4,22.9 C8.2,23.6 7.5,24 6.8,24 Z M2.3,16.4 C2.1,16.4 1.8,16.4 1.6,16.3 C1.2,16.1 0.8,15.8 0.6,15.3 C0.4,14.9 0.4,14.4 0.6,13.9 L5.8,1.3 C6.1,0.6 6.7,0.2 7.4,0.2 C7.6,0.2 7.9,0.2 8.1,0.3 C8.5,0.5 8.9,0.8 9.1,1.3 C9.3,1.7 9.3,2.2 9.1,2.7 L3.9,15.3 C3.6,15.9 3,16.4 2.3,16.4 Z" id="Shape" fill="#BFDDED" fill-rule="nonzero"></path>
    </g>
</svg>