<?xml version="1.0" encoding="UTF-8"?>
<svg width="53px" height="34px" viewBox="0 0 53 34" version="1.1" xmlns="http://www.w3.org/2000/svg" xmlns:xlink="http://www.w3.org/1999/xlink">
    <!-- Generator: Sketch 43.1 (39012) - http://www.bohemiancoding.com/sketch -->
    <title>Shape</title>
    <desc>Created with Sketch.</desc>
    <defs></defs>
    <g id="Page-1" stroke="none" stroke-width="1" fill="none" fill-rule="evenodd">
        <path d="M3.4,18.8 C4.4,17.2 6,16 7.9,15.6 C8.4,15.5 9,15.4 9.6,15.4 C10.4,15.4 11.2,15.5 11.9,15.8 C12.1,15.9 12.3,15.9 12.5,15.9 C12.8,15.9 13.1,15.8 13.4,15.7 C13.8,15.4 14.2,15 14.3,14.5 C15.5,8.6 20.8,4.3 26.9,4.3 C31.6,4.3 36,6.9 38.2,11 C38.5,11.6 39.1,11.9 39.8,11.9 L40.1,11.9 C44.3,11.9 47.9,14.7 48.8,18.8 C49.9,23.6 46.9,28.5 42.1,29.6 C42.1,29.6 40.1,29.9 40.7,32 C41.1,33.6 42.9,33.1 42.9,33.1 C49.6,31.5 53.8,24.7 52.2,18 C51.5,15.2 50,12.8 47.7,11 C45.7,9.5 43.4,8.6 40.9,8.4 L40.7,8.4 L40.6,8.2 C37.6,3.5 32.4,0.7 26.9,0.7 C23.1,0.7 19.4,2 16.5,4.4 C14.2,6.3 12.5,8.8 11.5,11.6 L11.4,12 L11,12 C10.6,12 10.2,11.9 9.8,11.9 C9,11.9 8.1,12 7.3,12.2 C4.5,12.9 2.1,14.6 0.6,17 C0.6,17 -0.4,19.2 1.1,19.9 C2.6,20.6 3.4,18.8 3.4,18.8 Z" id="Shape" fill="#FFFFFF" fill-rule="nonzero"></path>
    </g>
</svg>