<?xml version="1.0" encoding="UTF-8"?>
<svg width="51px" height="17px" viewBox="0 0 51 17" version="1.1" xmlns="http://www.w3.org/2000/svg" xmlns:xlink="http://www.w3.org/1999/xlink">
    <!-- Generator: Sketch 43.1 (39012) - http://www.bohemiancoding.com/sketch -->
    <title>Shape</title>
    <desc>Created with Sketch.</desc>
    <defs></defs>
    <g id="Page-1" stroke="none" stroke-width="1" fill="none" fill-rule="evenodd">
        <path d="M6.6,3.6 C5.6,3.6 4.8,2.8 4.8,1.8 C4.8,0.8 5.6,0 6.6,0 L44.5,0 C45.5,0 46.3,0.8 46.3,1.8 C46.3,2.8 45.5,3.6 44.5,3.6 L6.6,3.6 Z M11.2,16.7 C10.2,16.7 9.4,15.9 9.4,14.9 C9.4,13.9 10.2,13.1 11.2,13.1 L49.1,13.1 C50.1,13.1 50.9,13.9 50.9,14.9 C50.9,15.9 50.1,16.7 49.1,16.7 L11.2,16.7 Z M1.9,10.2 C0.9,10.2 0.1,9.4 0.1,8.4 C0.1,7.4 0.9,6.6 1.9,6.6 L39.8,6.6 C40.8,6.6 41.6,7.4 41.6,8.4 C41.6,9.4 40.8,10.2 39.8,10.2 L1.9,10.2 Z" id="Shape" fill="#BFDDED" fill-rule="nonzero"></path>
    </g>
</svg>