<?xml version="1.0" encoding="utf-8"?>
<!-- Generator: Adobe Illustrator 21.1.0, SVG Export Plug-In . SVG Version: 6.00 Build 0)  -->
<svg version="1.1" id="Layer_1" xmlns="http://www.w3.org/2000/svg" xmlns:xlink="http://www.w3.org/1999/xlink" x="0px" y="0px"
	 viewBox="0 0 612 792" style="enable-background:new 0 0 612 792;" xml:space="preserve">
<style type="text/css">
	.st0{fill:#BFDDED;}
</style>
<path class="st0" d="M289.9,412c-2.5,0-4.8-0.8-6.7-2.3c-1.9-1.5-3.3-3.6-3.9-6c-0.7-2.8-0.2-5.7,1.3-8.1c1.5-2.5,3.9-4.2,6.7-4.8
	c0.8-0.2,1.7-0.3,2.5-0.3c0.4,0,0.8,0,1.2,0.1l0.4,0l0.1-0.4c1-2.8,2.7-5.3,5-7.2c2.9-2.4,6.6-3.7,10.4-3.7c5.6,0,10.7,2.8,13.7,7.5
	l0.1,0.2l0.2,0c2.4,0.2,4.8,1.1,6.8,2.6c2.2,1.7,3.8,4.2,4.5,7c0.8,3.3,0.2,6.6-1.5,9.5c-1.8,2.9-4.5,4.8-7.8,5.6
	c-1,0.2-1.9,0.3-2.9,0.3H289.9z M289.8,394c-0.6,0-1.1,0.1-1.7,0.2c-1.9,0.4-3.5,1.6-4.5,3.2c-1,1.6-1.3,3.6-0.9,5.5
	c0.8,3.3,3.7,5.6,7,5.6h30.4c0.7,0,1.4-0.1,2.1-0.2c4.8-1.1,7.8-6,6.7-10.8c-1-4.1-4.6-6.9-8.7-6.9c0,0-0.3,0-0.3,0
	c-0.7,0-1.3-0.4-1.6-0.9c-2.2-4.2-6.6-6.7-11.3-6.7c-6.1,0-11.4,4.3-12.6,10.2c-0.1,0.5-0.4,0.9-0.9,1.2c-0.3,0.2-0.6,0.2-0.9,0.2
	c-0.2,0-0.4,0-0.6-0.1C291.4,394.1,290.6,394,289.8,394z"/>
</svg>
