<?xml version="1.0" encoding="UTF-8"?>
<svg width="25px" height="25px" viewBox="0 0 25 25" version="1.1" xmlns="http://www.w3.org/2000/svg" xmlns:xlink="http://www.w3.org/1999/xlink">
    <!-- Generator: Sketch 43.1 (39012) - http://www.bohemiancoding.com/sketch -->
    <title>Shape</title>
    <desc>Created with Sketch.</desc>
    <defs></defs>
    <g id="Page-1" stroke="none" stroke-width="1" fill="none" fill-rule="evenodd">
        <path d="M19.3,13.5 C19.1,13.5 18.8,13.5 18.6,13.4 C18.2,13.2 17.8,12.9 17.6,12.4 C17.4,12 17.4,11.5 17.6,11 L21.5,1.5 C21.8,0.8 22.4,0.4 23.1,0.4 C23.3,0.4 23.6,0.4 23.8,0.5 C24.2,0.7 24.6,1 24.8,1.5 C25,1.9 25,2.4 24.8,2.9 L20.9,12.4 C20.6,13.1 20,13.5 19.3,13.5 Z M2.6,16.6 C2.4,16.6 2.1,16.6 1.9,16.5 C1.5,16.3 1.1,16 0.9,15.5 C0.7,15.1 0.7,14.6 0.9,14.1 L6.1,1.5 C6.4,0.8 7,0.4 7.7,0.4 C7.9,0.4 8.2,0.4 8.4,0.5 C8.8,0.7 9.2,1 9.4,1.5 C9.6,1.9 9.6,2.4 9.4,2.9 L4.2,15.5 C3.9,16.2 3.3,16.6 2.6,16.6 Z M7.1,24.2 C6.9,24.2 6.6,24.2 6.4,24.1 C6,23.9 5.6,23.6 5.4,23.1 C5.2,22.7 5.2,22.2 5.4,21.7 L13.8,1.5 C14.1,0.8 14.7,0.4 15.4,0.4 C15.6,0.4 15.9,0.4 16.1,0.5 C16.5,0.7 16.9,1 17.1,1.5 C17.3,1.9 17.3,2.4 17.1,2.9 L8.7,23.1 C8.5,23.8 7.8,24.2 7.1,24.2 Z" id="Shape" fill="#BFDDED" fill-rule="nonzero"></path>
    </g>
</svg>