<?xml version="1.0" encoding="UTF-8"?>
<svg width="55px" height="34px" viewBox="0 0 55 34" version="1.1" xmlns="http://www.w3.org/2000/svg" xmlns:xlink="http://www.w3.org/1999/xlink">
    <!-- Generator: Sketch 43.1 (39012) - http://www.bohemiancoding.com/sketch -->
    <title>Shape</title>
    <desc>Created with Sketch.</desc>
    <defs></defs>
    <g id="Page-1" stroke="none" stroke-width="1" fill="none" fill-rule="evenodd">
        <path d="M44.3,29.7 C49.1,28.6 52.1,23.7 51,18.9 C50,14.8 46.4,12 42.3,12 L42,12 C41.3,12 40.7,11.6 40.4,11.1 C38.2,6.9 33.8,4.4 29.1,4.4 C23,4.4 17.7,8.7 16.5,14.6 C16.4,15.1 16.1,15.5 15.6,15.8 C15.3,16 15,16 14.7,16 C14.5,16 14.3,16 14.1,15.9 C13.4,15.6 12.6,15.5 11.8,15.5 C11.2,15.5 10.7,15.6 10.1,15.7 C8.2,16.1 6.6,17.3 5.6,18.9 C4.6,20.5 4.3,22.5 4.7,24.4 C5.5,27.7 8.4,30 11.7,30 L13.3,30 C14.3,30 15.1,30.8 15.1,31.8 C15.1,32.8 14.3,33.6 13.3,33.6 L11.7,33.6 C9.3,33.6 7,32.8 5.1,31.3 C3.2,29.8 1.8,27.7 1.2,25.3 C0.5,22.5 1,19.6 2.5,17.1 C4,14.6 6.4,12.9 9.2,12.3 C10,12.1 10.9,12 11.7,12 C12.1,12 12.5,12 12.9,12.1 L13.3,12.1 L13.4,11.7 C14.4,8.9 16.1,6.4 18.4,4.5 C21.3,2.1 25,0.8 28.8,0.8 C34.4,0.8 39.5,3.6 42.5,8.3 L42.6,8.5 L42.8,8.5 C45.3,8.7 47.6,9.6 49.6,11.1 C51.8,12.8 53.4,15.3 54.1,18.1 C55.7,24.8 51.5,31.6 44.8,33.2 C44.8,33.2 42.7,33.6 42.6,32.1 C42.6,30 44.3,29.7 44.3,29.7 Z" id="Shape" fill="#FFFFFF" fill-rule="nonzero"></path>
    </g>
</svg>