<?xml version="1.0" encoding="UTF-8"?>
<svg width="34px" height="21px" viewBox="0 0 34 21" version="1.1" xmlns="http://www.w3.org/2000/svg" xmlns:xlink="http://www.w3.org/1999/xlink">
    <!-- Generator: Sketch 43.1 (39012) - http://www.bohemiancoding.com/sketch -->
    <title>Shape</title>
    <desc>Created with Sketch.</desc>
    <defs></defs>
    <g id="Page-1" stroke="none" stroke-width="1" fill="none" fill-rule="evenodd">
        <path d="M33.3,11.5 C32.9,9.8 31.9,8.2 30.5,7.1 C29.3,6.1 27.8,5.6 26.3,5.5 C24.4,2.6 21.2,0.9 17.8,0.9 C15.5,0.9 13.2,1.7 11.4,3.2 C10,4.4 8.9,5.9 8.3,7.6 C7.5,7.5 6.7,7.6 6,7.7 C4.2,8.1 2.7,9.2 1.8,10.7 C0.8,12.2 0.6,14.1 1,15.8 C1.4,17.3 2.2,18.6 3.4,19.6 C4.6,20.5 6.1,21 7.6,21 L7.6,21 L9.7,21 L24.6,21 L24.6,21 L24.6,21 L25.2,21 L25.2,21 L25.8,21 C26.4,21 27,20.9 27.6,20.8 C31.7,19.9 34.3,15.7 33.3,11.5 Z M26.8,18.2 C26.4,18.3 26,18.3 25.6,18.3 L24.5,18.3 L24.5,18.3 L9.6,18.3 L7.5,18.3 L7.5,18.3 L7.5,18.3 C5.6,18.3 4,17 3.6,15.2 C3.4,14.1 3.5,13.1 4.1,12.1 C4.7,11.2 5.6,10.5 6.6,10.3 C6.9,10.2 7.2,10.2 7.5,10.2 C7.9,10.2 8.4,10.3 8.8,10.4 C9.2,10.5 9.6,10.5 9.9,10.3 C10.2,10.1 10.5,9.8 10.6,9.4 C11.3,6 14.4,3.5 17.9,3.5 C20.6,3.5 23.1,5 24.4,7.4 C24.6,7.9 25.1,8.1 25.6,8.1 L25.8,8.1 C28.2,8.1 30.2,9.7 30.8,12 C31.3,14.8 29.6,17.6 26.8,18.2 Z" id="Shape" fill="#FFFFFF" fill-rule="nonzero"></path>
    </g>
</svg>