<?xml version="1.0" encoding="UTF-8"?>
<svg width="22px" height="18px" viewBox="0 0 22 18" version="1.1" xmlns="http://www.w3.org/2000/svg" xmlns:xlink="http://www.w3.org/1999/xlink">
    <!-- Generator: Sketch 43.1 (39012) - http://www.bohemiancoding.com/sketch -->
    <title>Shape</title>
    <desc>Created with Sketch.</desc>
    <defs></defs>
    <g id="Page-1" stroke="none" stroke-width="1" fill="none" fill-rule="evenodd">
        <path d="M4.1,18 C3.8,18 3.5,17.7 3.5,17.4 L3.5,14.8 L1.3,16.1 C1.2,16.2 1.1,16.2 1,16.2 C0.8,16.2 0.6,16.1 0.4,15.9 C0.3,15.8 0.3,15.6 0.3,15.4 C0.3,15.2 0.4,15.1 0.6,15 L2.8,13.7 L0.6,12.4 C0.5,12.3 0.3,12.2 0.3,12 C0.3,11.8 0.3,11.7 0.4,11.5 C0.5,11.3 0.7,11.2 1,11.2 C1.1,11.2 1.2,11.2 1.3,11.3 L3.5,12.6 L3.5,10 C3.5,9.6 3.8,9.4 4.1,9.4 C4.5,9.4 4.7,9.7 4.7,10 L4.7,12.5 L6.9,11.2 C7,11.1 7.1,11.1 7.2,11.1 C7.4,11.1 7.6,11.2 7.7,11.4 C7.8,11.5 7.8,11.7 7.8,11.9 C7.8,12.1 7.7,12.2 7.5,12.3 L5.3,13.6 L7.5,14.9 C7.6,15 7.8,15.1 7.8,15.3 C7.8,15.5 7.8,15.6 7.7,15.8 C7.6,16 7.4,16.1 7.1,16.1 C7,16.1 6.9,16.1 6.8,16 L4.6,14.7 L4.6,17.3 C4.7,17.7 4.4,18 4.1,18 Z M17.7,18 C17.4,18 17.1,17.7 17.1,17.4 L17.1,14.8 L14.9,16.1 C14.8,16.2 14.7,16.2 14.6,16.2 C14.4,16.2 14.2,16.1 14,15.9 C13.8,15.6 13.9,15.2 14.2,15 L16.4,13.7 L14.2,12.4 C14.1,12.3 13.9,12.2 13.9,12 C13.9,11.8 13.9,11.7 14,11.5 C14.1,11.3 14.3,11.2 14.6,11.2 C14.7,11.2 14.8,11.2 14.9,11.3 L17.1,12.6 L17.1,10 C17.1,9.6 17.4,9.4 17.7,9.4 C18,9.4 18.3,9.7 18.3,10 L18.3,12.5 L20.5,11.2 C20.6,11.1 20.7,11.1 20.8,11.1 C21,11.1 21.2,11.2 21.4,11.4 C21.6,11.7 21.5,12.1 21.2,12.3 L19,13.6 L21.2,14.9 C21.3,15 21.5,15.1 21.5,15.3 C21.5,15.5 21.5,15.6 21.4,15.8 C21.3,16 21.1,16.1 20.8,16.1 C20.7,16.1 20.6,16.1 20.5,16 L18.3,14.7 L18.3,17.3 C18.4,17.7 18.1,18 17.7,18 Z M10.9,8.5 C10.5,8.5 10.3,8.2 10.3,7.9 L10.3,5.3 L8.1,6.6 C8,6.7 7.9,6.7 7.8,6.7 C7.6,6.7 7.4,6.6 7.2,6.4 C7,6.1 7.1,5.7 7.4,5.5 L9.6,4.2 L7.4,2.9 C7.1,2.7 7,2.3 7.2,2 C7.3,1.8 7.5,1.7 7.7,1.7 C7.8,1.7 7.9,1.7 8,1.8 L10.2,3.1 L10.2,0.6 C10.2,0.2 10.5,0 10.8,0 C11.1,0 11.4,0.3 11.4,0.6 L11.4,3.1 L13.6,1.8 C13.7,1.7 13.8,1.7 13.9,1.7 C14.1,1.7 14.3,1.8 14.5,2 C14.6,2.1 14.6,2.3 14.6,2.5 C14.6,2.7 14.5,2.8 14.3,2.9 L12.1,4.2 L14.3,5.5 C14.6,5.7 14.7,6.1 14.5,6.4 C14.4,6.6 14.2,6.7 13.9,6.7 C13.8,6.7 13.7,6.7 13.6,6.6 L11.4,5.3 L11.4,7.9 C11.5,8.2 11.2,8.5 10.9,8.5 Z" id="Shape" fill="#BFDDED" fill-rule="nonzero"></path>
    </g>
</svg>