<?xml version="1.0" encoding="UTF-8"?>
<svg width="35px" height="31px" viewBox="0 0 35 31" version="1.1" xmlns="http://www.w3.org/2000/svg" xmlns:xlink="http://www.w3.org/1999/xlink">
    <!-- Generator: Sketch 43.1 (39012) - http://www.bohemiancoding.com/sketch -->
    <title>Shape</title>
    <desc>Created with Sketch.</desc>
    <defs></defs>
    <g id="Page-1" stroke="none" stroke-width="1" fill="none" fill-rule="evenodd">
        <path d="M17.9,8.7 C23.1,8.7 27.2,12.9 27.1,18.1 C27.1,22.4 24,26.3 20,27.1 L19.9,27.1 C19.1,27.1 18.5,26.5 18.5,25.7 C18.5,25.5 18.5,25.3 18.6,25.1 C18.7,24.8 18.9,24.5 19.2,24.4 C19.4,24.4 19.6,24.3 19.7,24.3 C19.8,24.2 19.8,24.2 19.9,24.2 C20.4,24 20.9,23.8 21.4,23.5 C21.8,23.2 22.2,22.9 22.6,22.5 C22.9,22.1 23.3,21.7 23.5,21.2 C23.8,20.7 24,20.2 24.1,19.7 C24.1,19.4 24.2,19.2 24.2,18.9 L24.2,18.7 C24.3,18.4 24.3,18.2 24.3,18 C24.3,14.4 21.4,11.5 17.8,11.5 C14.2,11.5 11.3,14.4 11.3,18 C11.3,18.3 11.4,18.6 11.4,18.8 L11.4,18.9 C11.5,19.2 11.6,19.7 11.4,20.1 C11.2,20.6 10.6,20.9 10.2,20.9 C9.4,20.9 8.7,20.3 8.7,19.5 C8.6,19 8.6,18.5 8.6,18 C8.6,12.9 12.8,8.7 17.9,8.7 Z M17.9,7.4 C17.2,7.4 16.5,6.7 16.5,6 L16.5,2.3 C16.5,1.5 17.1,0.9 17.9,0.9 C18.7,0.9 19.3,1.5 19.3,2.3 L19.3,6 C19.3,6.8 18.7,7.4 17.9,7.4 Z M5.9,16.6 C6.7,16.6 7.3,17.2 7.3,18 C7.3,18.8 6.7,19.4 5.9,19.4 L2.2,19.4 C1.4,19.4 0.8,18.8 0.8,18 C0.8,17.2 1.4,16.6 2.2,16.6 L5.9,16.6 Z M33.6,16.6 C34.4,16.6 35,17.2 35,18 C35,18.8 34.4,19.4 33.6,19.4 L29.9,19.4 C29.1,19.4 28.5,18.8 28.5,18 C28.5,17.2 29.1,16.6 29.9,16.6 L33.6,16.6 Z M26.8,10.8 C26.4,10.8 26.1,10.7 25.8,10.4 C25.5,10.1 25.4,9.8 25.4,9.4 C25.4,9 25.5,8.7 25.8,8.4 L28.4,5.8 C28.7,5.5 29,5.4 29.4,5.4 C29.8,5.4 30.1,5.5 30.4,5.8 C30.7,6.1 30.8,6.4 30.8,6.8 C30.8,7.2 30.7,7.5 30.4,7.8 L27.8,10.4 C27.5,10.7 27.2,10.8 26.8,10.8 Z M27.8,25.6 L30.4,28.2 C30.7,28.5 30.8,28.8 30.8,29.2 C30.8,29.6 30.7,29.9 30.4,30.2 C30.1,30.5 29.8,30.6 29.4,30.6 C29,30.6 28.7,30.5 28.4,30.2 L25.8,27.6 C25.5,27.3 25.4,27 25.4,26.6 C25.4,26.2 25.5,25.9 25.8,25.6 C26.1,25.3 26.4,25.2 26.8,25.2 C27.2,25.2 27.5,25.3 27.8,25.6 Z M10.5,10.6 C10.2,10.9 9.8,11 9.5,11 C9.1,11 8.8,10.9 8.5,10.6 L5.9,8 C5.6,7.7 5.5,7.4 5.5,7 C5.5,6.6 5.6,6.3 5.9,6 C6.2,5.7 6.5,5.6 6.9,5.6 C7.3,5.6 7.6,5.7 7.9,6 L10.5,8.6 C11,9.2 11,10.1 10.5,10.6 Z" id="Shape" fill="#FAAF42" fill-rule="nonzero"></path>
    </g>
</svg>