<?xml version="1.0" encoding="UTF-8"?>
<svg width="19px" height="23px" viewBox="0 0 19 23" version="1.1" xmlns="http://www.w3.org/2000/svg" xmlns:xlink="http://www.w3.org/1999/xlink">
    <!-- Generator: Sketch 43.1 (39012) - http://www.bohemiancoding.com/sketch -->
    <title>Shape</title>
    <desc>Created with Sketch.</desc>
    <defs></defs>
    <g id="Page-1" stroke="none" stroke-width="1" fill="none" fill-rule="evenodd">
        <path d="M10.8,0.8 C11.9,1.6 12.1,3.1 11.2,4.1 C10.7,4.7 10,5 9.3,5 C8.8,5 8.3,4.8 7.9,4.5 C7.4,4.1 7.1,3.5 7,2.9 C6.9,2.3 7.1,1.7 7.5,1.2 C8,0.6 8.7,0.3 9.4,0.3 C9.9,0.3 10.4,0.5 10.8,0.8 Z M17.2,9.6 C18.3,10.4 18.5,11.9 17.6,13 C17.1,13.6 16.4,13.9 15.7,13.9 C15.2,13.9 14.7,13.7 14.3,13.4 C13.8,13 13.5,12.4 13.4,11.8 C13.3,11.1 13.5,10.5 13.9,10 C14.4,9.4 15.1,9.1 15.8,9.1 C16.3,9.1 16.8,9.3 17.2,9.6 Z M4.4,9.6 C5.5,10.4 5.7,11.9 4.9,13 C4.4,13.6 3.7,13.9 3,13.9 C2.4,13.9 1.9,13.7 1.5,13.4 C1,13 0.7,12.4 0.6,11.8 C0.5,11.1 0.7,10.5 1.1,10 C1.6,9.4 2.3,9.1 3,9.1 C3.5,9.1 4,9.3 4.4,9.6 Z M10.8,18.3 C11.9,19.1 12.1,20.6 11.2,21.7 C10.7,22.3 10,22.6 9.3,22.6 C8.8,22.6 8.3,22.4 7.9,22.1 C7.4,21.7 7.1,21.1 7,20.5 C6.9,19.8 7.1,19.2 7.5,18.7 C8,18.1 8.7,17.8 9.4,17.8 C9.9,17.8 10.4,18 10.8,18.3 Z" id="Shape" fill="#BFDDED" fill-rule="nonzero"></path>
    </g>
</svg>