<?xml version="1.0" encoding="UTF-8"?>
<svg width="42px" height="43px" viewBox="0 0 42 43" version="1.1" xmlns="http://www.w3.org/2000/svg" xmlns:xlink="http://www.w3.org/1999/xlink">
    <!-- Generator: Sketch 43.1 (39012) - http://www.bohemiancoding.com/sketch -->
    <title>Shape</title>
    <desc>Created with Sketch.</desc>
    <defs></defs>
    <g id="Page-1" stroke="none" stroke-width="1" fill="none" fill-rule="evenodd">
        <path d="M21,12.8892086 C25.6220096,12.8892086 29.4401914,16.7165468 29.4401914,21.3496403 C29.4401914,25.9827338 25.6220096,29.8100719 21,29.8100719 C16.3779904,29.8100719 12.5598086,25.9827338 12.5598086,21.3496403 C12.5598086,16.7165468 16.277512,12.8892086 21,12.8892086 L21,12.8892086 Z M21,10.2705036 C14.8708134,10.2705036 9.84688995,15.3064748 9.84688995,21.4503597 C9.84688995,27.5942446 14.8708134,32.6302158 21,32.6302158 C27.1291866,32.6302158 32.15311,27.694964 32.15311,21.4503597 C32.0526316,15.2057554 27.1291866,10.2705036 21,10.2705036 L21,10.2705036 Z M21,7.65179856 C20.2966507,7.65179856 19.6937799,7.04748201 19.6937799,6.34244604 L19.6937799,1.70935252 C19.6937799,1.00431655 20.2966507,0.4 21,0.4 C21.7033493,0.4 22.3062201,1.00431655 22.3062201,1.70935252 L22.3062201,6.34244604 C22.3062201,7.04748201 21.7033493,7.65179856 21,7.65179856 Z M21,42.4 C20.2966507,42.4 19.6937799,41.7956835 19.6937799,41.0906475 L19.6937799,36.457554 C19.6937799,35.752518 20.2966507,35.1482014 21,35.1482014 C21.7033493,35.1482014 22.3062201,35.752518 22.3062201,36.457554 L22.3062201,41.0906475 C22.3062201,41.8964029 21.7033493,42.4 21,42.4 Z M5.92822967,22.7597122 L1.3062201,22.7597122 C0.602870813,22.7597122 -5.68434189e-14,22.1553957 -5.68434189e-14,21.4503597 C-5.68434189e-14,20.7453237 0.602870813,20.1410072 1.3062201,20.1410072 L5.92822967,20.1410072 C6.63157895,20.1410072 7.23444976,20.7453237 7.23444976,21.4503597 C7.23444976,22.1553957 6.63157895,22.7597122 5.92822967,22.7597122 Z M40.6937799,22.7597122 L36.0717703,22.7597122 C35.3684211,22.7597122 34.7655502,22.1553957 34.7655502,21.4503597 C34.7655502,20.7453237 35.3684211,20.1410072 36.0717703,20.1410072 L40.6937799,20.1410072 C41.3971292,20.1410072 42,20.7453237 42,21.4503597 C42,22.1553957 41.3971292,22.7597122 40.6937799,22.7597122 Z M32.15311,11.8820144 C31.8516746,11.8820144 31.4497608,11.781295 31.2488038,11.4791367 C30.7464115,10.9755396 30.7464115,10.0690647 31.2488038,9.56546763 L34.4641148,6.34244604 C34.9665072,5.83884892 35.8708134,5.83884892 36.3732057,6.34244604 C36.8755981,6.84604317 36.8755981,7.75251799 36.3732057,8.25611511 L33.1578947,11.4791367 C32.7559809,11.781295 32.4545455,11.8820144 32.15311,11.8820144 Z M7.13397129,36.9611511 C6.83253589,36.9611511 6.43062201,36.8604317 6.22966507,36.5582734 C5.72727273,36.0546763 5.72727273,35.1482014 6.22966507,34.6446043 L9.44497608,31.4215827 C9.94736842,30.9179856 10.8516746,30.9179856 11.354067,31.4215827 C11.8564593,31.9251799 11.8564593,32.8316547 11.354067,33.3352518 L8.13875598,36.5582734 C7.73684211,36.8604317 7.4354067,36.9611511 7.13397129,36.9611511 Z M35.3684211,36.8604317 C35.0669856,36.8604317 34.6650718,36.7597122 34.4641148,36.457554 L31.2488038,33.2345324 C30.7464115,32.7309353 30.7464115,31.8244604 31.2488038,31.3208633 C31.7511962,30.8172662 32.6555024,30.8172662 33.1578947,31.3208633 L36.3732057,34.5438849 C36.8755981,35.047482 36.8755981,35.9539568 36.3732057,36.457554 C36.0717703,36.6589928 35.6698565,36.8604317 35.3684211,36.8604317 Z M10.3492823,12.1841727 C10.0478469,12.1841727 9.64593301,12.0834532 9.44497608,11.781295 L6.22966507,8.55827338 C5.72727273,8.05467626 5.72727273,7.14820144 6.22966507,6.64460432 C6.73205742,6.14100719 7.63636364,6.14100719 8.13875598,6.64460432 L11.354067,9.8676259 C11.8564593,10.371223 11.8564593,11.2776978 11.354067,11.781295 C11.0526316,11.9827338 10.6507177,12.1841727 10.3492823,12.1841727 Z" id="Shape" fill="#FAAF42" fill-rule="nonzero"></path>
    </g>
</svg>