<?xml version="1.0" encoding="UTF-8"?>
<svg width="55px" height="34px" viewBox="0 0 55 34" version="1.1" xmlns="http://www.w3.org/2000/svg" xmlns:xlink="http://www.w3.org/1999/xlink">
    <!-- Generator: Sketch 43.1 (39012) - http://www.bohemiancoding.com/sketch -->
    <title>Shape</title>
    <desc>Created with Sketch.</desc>
    <defs></defs>
    <g id="Page-1" stroke="none" stroke-width="1" fill="none" fill-rule="evenodd">
        <path d="M11.6,33.6 C9.1,33.6 6.8,32.8 4.9,31.3 C3,29.8 1.6,27.7 1,25.3 C0.3,22.5 0.8,19.6 2.3,17.2 C3.8,14.7 6.2,13 9,12.4 C9.8,12.2 10.7,12.1 11.5,12.1 C11.9,12.1 12.3,12.1 12.7,12.2 L13.1,12.2 L13.2,11.8 C14.2,9 15.9,6.5 18.2,4.6 C21.1,2.2 24.8,0.9 28.6,0.9 C34.2,0.9 39.3,3.7 42.3,8.4 L42.4,8.6 L42.6,8.6 C45,8.8 47.4,9.7 49.4,11.2 C51.6,12.9 53.2,15.4 53.9,18.2 C54.7,21.5 54.1,24.8 52.4,27.7 C50.6,30.6 47.9,32.5 44.6,33.3 C43.6,33.5 42.7,33.6 41.7,33.6 L11.6,33.6 L11.6,33.6 Z M11.5,15.6 C10.9,15.6 10.4,15.7 9.8,15.8 C7.9,16.2 6.3,17.4 5.3,19 C4.3,20.6 4,22.6 4.4,24.5 C5.2,27.8 8.1,30.1 11.4,30.1 L41.8,30.1 C42.5,30.1 43.2,30 43.9,29.9 C48.7,28.8 51.7,23.9 50.6,19.1 C49.6,15 46,12.2 41.9,12.2 L41.6,12.2 C40.9,12.2 40.3,11.8 40,11.3 C37.8,7.1 33.4,4.6 28.7,4.6 C22.6,4.6 17.3,8.9 16.1,14.8 C16,15.3 15.7,15.7 15.2,16 C14.9,16.2 14.6,16.2 14.3,16.2 C14.1,16.2 13.9,16.2 13.7,16.1 C13.1,15.7 12.3,15.6 11.5,15.6 Z" id="Shape" fill="#FFFFFF" fill-rule="nonzero"></path>
    </g>
</svg>