<?xml version="1.0" encoding="UTF-8"?>
<svg width="26px" height="25px" viewBox="0 0 26 25" version="1.1" xmlns="http://www.w3.org/2000/svg" xmlns:xlink="http://www.w3.org/1999/xlink">
    <!-- Generator: Sketch 43.1 (39012) - http://www.bohemiancoding.com/sketch -->
    <title>Shape</title>
    <desc>Created with Sketch.</desc>
    <defs></defs>
    <g id="Page-1" stroke="none" stroke-width="1" fill="none" fill-rule="evenodd">
        <path d="M17.6,19.3 C17.3,19.3 17,19 17,18.7 L17,16.1 L14.8,17.4 C14.7,17.5 14.6,17.5 14.5,17.5 C14.3,17.5 14.1,17.4 13.9,17.2 C13.7,16.9 13.8,16.5 14.1,16.3 L16.3,15 L14.1,13.7 C13.8,13.5 13.7,13.1 13.9,12.8 C14,12.6 14.2,12.5 14.5,12.5 C14.6,12.5 14.7,12.5 14.8,12.6 L17,13.9 L17,11.4 C17,11.1 17.3,10.8 17.6,10.8 C17.9,10.8 18.2,11.1 18.2,11.4 L18.2,13.9 L20.4,12.6 C20.5,12.5 20.6,12.5 20.7,12.5 C20.9,12.5 21.1,12.6 21.3,12.8 C21.5,13.1 21.4,13.5 21.1,13.7 L18.9,15 L21.1,16.3 C21.4,16.5 21.5,16.9 21.3,17.2 C21.2,17.4 21,17.5 20.7,17.5 C20.6,17.5 20.5,17.5 20.4,17.4 L18.2,16.1 L18.2,18.7 C18.3,19 18,19.3 17.6,19.3 Z M21.9,9.2 C21.6,9.2 21.3,8.9 21.3,8.6 L21.3,6 L19.1,7.3 C19,7.4 18.9,7.4 18.8,7.4 C18.6,7.4 18.4,7.3 18.3,7.1 C18.2,7 18.2,6.8 18.2,6.6 C18.2,6.4 18.3,6.3 18.5,6.2 L20.7,4.9 L18.5,3.6 C18.4,3.5 18.2,3.4 18.2,3.2 C18.2,3 18.2,2.9 18.3,2.7 C18.4,2.5 18.6,2.4 18.9,2.4 C19,2.4 19.1,2.4 19.2,2.5 L21.4,3.8 L21.4,1.3 C21.4,1 21.7,0.7 22,0.7 C22.3,0.7 22.6,1 22.6,1.3 L22.6,3.8 L24.8,2.5 C24.9,2.4 25,2.4 25.1,2.4 C25.3,2.4 25.5,2.5 25.6,2.7 C25.7,2.8 25.7,3 25.7,3.2 C25.7,3.4 25.6,3.5 25.4,3.6 L23.2,4.9 L25.4,6.2 C25.5,6.3 25.7,6.4 25.7,6.6 C25.7,6.8 25.7,6.9 25.6,7.1 C25.5,7.3 25.3,7.4 25,7.4 C24.9,7.4 24.8,7.4 24.7,7.3 L22.5,6 L22.5,8.6 C22.6,8.9 22.3,9.2 21.9,9.2 Z M1.9,17 C1.7,17 1.4,17 1.2,16.9 C0.8,16.7 0.4,16.4 0.2,15.9 C1.42108547e-14,15.5 1.42108547e-14,15 0.2,14.5 L5.4,1.9 C5.7,1.2 6.3,0.8 7,0.8 C7.2,0.8 7.5,0.8 7.7,0.9 C8.1,1.1 8.5,1.4 8.7,1.9 C8.9,2.3 8.9,2.8 8.7,3.3 L3.5,15.9 C3.3,16.6 2.6,17 1.9,17 Z M6.4,24.6 C6.2,24.6 5.9,24.6 5.7,24.5 C5.3,24.3 4.9,24 4.7,23.5 C4.5,23.1 4.5,22.6 4.7,22.1 L13.1,1.9 C13.4,1.2 14,0.8 14.7,0.8 C14.9,0.8 15.2,0.8 15.4,0.9 C15.8,1.1 16.2,1.4 16.4,1.9 C16.6,2.3 16.6,2.8 16.4,3.3 L8,23.5 C7.8,24.2 7.2,24.6 6.4,24.6 Z" id="Shape" fill="#BFDDED" fill-rule="nonzero"></path>
    </g>
</svg>