<?xml version="1.0" encoding="UTF-8"?>
<svg width="18px" height="22px" viewBox="0 0 18 22" version="1.1" xmlns="http://www.w3.org/2000/svg" xmlns:xlink="http://www.w3.org/1999/xlink">
    <!-- Generator: Sketch 43.1 (39012) - http://www.bohemiancoding.com/sketch -->
    <title>Shape</title>
    <desc>Created with Sketch.</desc>
    <defs></defs>
    <g id="Page-1" stroke="none" stroke-width="1" fill="none" fill-rule="evenodd">
        <path d="M9,21.1 C8.8,21.1 8.5,21.1 8.3,21 C7.9,20.8 7.5,20.5 7.3,20 C7.1,19.6 7.1,19.1 7.3,18.6 L9.6,13 C9.9,12.3 10.5,11.9 11.2,11.9 C11.4,11.9 11.7,11.9 11.9,12 C12.3,12.2 12.7,12.5 12.9,13 C13.1,13.4 13.1,13.9 12.9,14.4 L10.6,20 C10.3,20.7 9.7,21.1 9,21.1 Z M13.6,9.9 C13.4,9.9 13.1,9.9 12.9,9.8 C12,9.4 11.6,8.4 11.9,7.5 L14.2,1.9 C14.5,1.2 15.1,0.8 15.8,0.8 C16,0.8 16.3,0.8 16.5,0.9 C16.9,1.1 17.3,1.4 17.5,1.9 C17.7,2.4 17.7,2.8 17.5,3.3 L15.2,8.9 C15,9.5 14.3,9.9 13.6,9.9 Z M2,16.9 C1.8,16.9 1.5,16.9 1.3,16.8 C0.9,16.6 0.5,16.3 0.3,15.8 C0.1,15.4 0.1,14.9 0.3,14.4 L0.9,13 C1.2,12.3 1.8,11.9 2.5,11.9 C2.7,11.9 3,11.9 3.2,12 C3.6,12.2 4,12.5 4.2,13 C4.4,13.4 4.4,13.9 4.2,14.4 L3.6,15.8 C3.4,16.4 2.7,16.9 2,16.9 Z M4.9,9.9 C4.7,9.9 4.4,9.9 4.2,9.8 C3.3,9.4 2.9,8.4 3.2,7.5 L5.5,1.9 C5.8,1.2 6.4,0.8 7.1,0.8 C7.3,0.8 7.6,0.8 7.8,0.9 C8.7,1.3 9.1,2.3 8.8,3.2 L6.5,8.8 C6.3,9.5 5.6,9.9 4.9,9.9 Z" id="Shape" fill="#BFDDED" fill-rule="nonzero"></path>
    </g>
</svg>