<?xml version="1.0" encoding="UTF-8"?>
<svg width="54px" height="33px" viewBox="0 0 54 33" version="1.1" xmlns="http://www.w3.org/2000/svg" xmlns:xlink="http://www.w3.org/1999/xlink">
    <!-- Generator: Sketch 43.1 (39012) - http://www.bohemiancoding.com/sketch -->
    <title>Shape</title>
    <desc>Created with Sketch.</desc>
    <defs></defs>
    <g id="Page-1" stroke="none" stroke-width="1" fill="none" fill-rule="evenodd">
        <path d="M10.9,33 C8.4,33 6.1,32.2 4.2,30.7 C2.3,29.2 0.9,27.1 0.3,24.7 C-0.4,21.9 0.1,19 1.6,16.6 C3.1,14.1 5.5,12.4 8.3,11.8 C9.1,11.6 10,11.5 10.8,11.5 C11.2,11.5 11.6,11.5 12,11.6 L12.4,11.6 L12.5,11.2 C13.5,8.4 15.2,5.9 17.5,4 C20.4,1.6 24.1,0.3 27.9,0.3 C33.5,0.3 38.6,3.1 41.6,7.8 L41.7,8 L41.9,8 C44.3,8.2 46.7,9.1 48.7,10.6 C50.9,12.3 52.5,14.8 53.2,17.6 C54,20.9 53.4,24.2 51.7,27.1 C49.9,30 47.2,31.9 43.9,32.7 C42.9,32.9 42,33 41,33 L10.9,33 L10.9,33 Z M10.8,15 C10.2,15 9.7,15.1 9.1,15.2 C7.2,15.6 5.6,16.8 4.6,18.4 C3.6,20 3.3,22 3.7,23.9 C4.5,27.2 7.4,29.5 10.7,29.5 L41.1,29.5 C41.8,29.5 42.5,29.4 43.2,29.3 C48,28.2 51,23.3 49.9,18.5 C48.9,14.4 45.3,11.6 41.2,11.6 L40.9,11.6 C40.2,11.6 39.6,11.2 39.3,10.7 C37.1,6.5 32.7,4 28,4 C21.9,4 16.6,8.3 15.4,14.2 C15.3,14.7 15,15.1 14.5,15.4 C14.2,15.6 13.9,15.6 13.6,15.6 C13.4,15.6 13.2,15.6 13,15.5 C12.4,15.1 11.6,15 10.8,15 Z" id="Shape" fill="#BFDDED" fill-rule="nonzero"></path>
    </g>
</svg>