<?xml version="1.0" encoding="UTF-8"?>
<svg width="47px" height="41px" viewBox="0 0 47 41" version="1.1" xmlns="http://www.w3.org/2000/svg" xmlns:xlink="http://www.w3.org/1999/xlink">
    <!-- Generator: Sketch 43.1 (39012) - http://www.bohemiancoding.com/sketch -->
    <title>Shape</title>
    <desc>Created with Sketch.</desc>
    <defs></defs>
    <g id="Page-1" stroke="none" stroke-width="1" fill="none" fill-rule="evenodd">
        <path d="M23.3,11.2 C30.1,11.2 35.6,16.7 35.3,23.5 C35.3,29.2 31.2,34.3 25.9,35.4 L25.8,35.4 C24.9,35.3 24.2,34.6 24.2,33.7 C24.2,33.5 24.2,33.3 24.3,33.1 C24.5,32.8 24.8,32.5 25.1,32.3 C25.3,32.2 25.5,32.1 25.7,32.1 C25.9,32.1 26,32.1 26.1,32 C26.8,31.7 27.5,31.4 28.2,31 C28.8,30.6 29.4,30.2 29.9,29.6 C30.4,29 30.9,28.4 31.2,27.8 C31.6,27.1 31.8,26.4 32,25.7 C32.1,25.4 32.2,25 32.2,24.6 L32.2,24.4 C32.3,24.1 32.3,23.8 32.3,23.5 C32.3,18.5 28.3,14.4 23.3,14.4 C18.3,14.4 14.2,18.5 14.2,23.5 C14.2,23.9 14.3,24.3 14.3,24.6 L14.3,24.8 C14.4,25.3 14.5,25.8 14.3,26.3 C14.1,26.8 13.4,27.1 12.9,27.1 C12,27.1 11.3,26.4 11.2,25.5 C11.1,24.9 11,24.2 11,23.5 C11,16.7 16.5,11.2 23.3,11.2 Z M23.3,8.8 C22.4,8.8 21.7,8.1 21.7,7.2 L21.7,2.2 C21.7,1.3 22.4,0.6 23.3,0.6 C24.2,0.6 24.9,1.3 24.9,2.2 L24.9,7.2 C24.9,8.1 24.2,8.8 23.3,8.8 Z M7,21.9 C7.9,21.9 8.6,22.6 8.6,23.5 C8.6,24.4 7.9,25.1 7,25.1 L2,25.1 C1.1,25.1 0.4,24.4 0.4,23.5 C0.4,22.6 1.1,21.9 2,21.9 L7,21.9 Z M44.5,21.9 C45.4,21.9 46.1,22.6 46.1,23.5 C46.1,24.4 45.4,25.1 44.5,25.1 L39.5,25.1 C38.6,25.1 37.9,24.4 37.9,23.5 C37.9,22.6 38.6,21.9 39.5,21.9 L44.5,21.9 Z M35.3,13.5 C34.9,13.5 34.5,13.4 34.1,13.1 C33.8,12.8 33.6,12.4 33.6,12 C33.6,11.5 33.8,11.1 34.1,10.8 L37.6,7.3 C38,7 38.4,6.8 38.8,6.8 C39.2,6.8 39.6,7 39.9,7.3 C40.2,7.6 40.4,8 40.4,8.4 C40.4,8.8 40.2,9.2 39.9,9.5 L36.4,13 C36.1,13.3 35.7,13.5 35.3,13.5 Z M36.4,34 L40,37.5 C40.3,37.8 40.5,38.2 40.5,38.6 C40.5,39.1 40.3,39.5 40,39.8 C39.7,40.1 39.3,40.3 38.9,40.3 C38.4,40.3 38,40.1 37.7,39.8 L34.2,36.3 C33.9,36 33.7,35.6 33.7,35.2 C33.7,34.7 33.9,34.3 34.2,34 C34.5,33.7 34.9,33.5 35.3,33.5 C35.7,33.5 36.1,33.7 36.4,34 Z M13,13.3 C12.6,13.6 12.2,13.8 11.9,13.7 C11.5,13.7 11.1,13.5 10.8,13.2 L7.3,9.7 C7,9.4 6.8,9 6.8,8.6 C6.8,8.2 7,7.8 7.3,7.5 C7.6,7.2 8,7 8.4,7 C8.8,7 9.2,7.2 9.5,7.5 L13,11 C13.6,11.6 13.6,12.7 13,13.3 Z" id="Shape" fill="#FAAF42" fill-rule="nonzero"></path>
    </g>
</svg>